<?xml version="1.0" encoding="UTF-8"?>
<!-- Generator: Adobe Illustrator 22.1.0, SVG Export Plug-In . SVG Version: 6.00 Build 0)  -->
<svg version="1.1" id="Capa_1" xmlns="http://www.w3.org/2000/svg" xmlns:xlink="http://www.w3.org/1999/xlink" x="0px" y="0px" viewBox="0 0 37 38.1" style="enable-background:new 0 0 37 38.1;" xml:space="preserve">
<style type="text/css">
	.st0{fill:#F1E521;}
</style>
<g>
	<path class="st0" d="M14.7,35.9H2.1V2.1h27.2v18.1c0,0.6,0.5,1.1,1.1,1.1c0.6,0,1.1-0.5,1.1-1.1V1.1C31.5,0.5,31,0,30.4,0H1.1   C0.5,0,0,0.5,0,1.1V37c0,0.6,0.5,1.1,1.1,1.1h13.6c0.6,0,1.1-0.5,1.1-1.1C15.8,36.4,15.3,35.9,14.7,35.9z"/>
	<path class="st0" d="M24.2,18.9c0-0.6-0.5-1.1-1.1-1.1H8.9c-0.6,0-1.1,0.5-1.1,1.1S8.3,20,8.9,20h14.2C23.7,20,24.2,19.5,24.2,18.9   z"/>
	<path class="st0" d="M36.6,24.4c-0.2-0.2-0.5-0.3-0.7-0.3c-0.3,0-0.6,0.1-0.8,0.4l-9,10L21.4,30c-0.2-0.2-0.5-0.3-0.7-0.3   c-0.3,0-0.6,0.1-0.8,0.3c-0.2,0.2-0.3,0.5-0.3,0.8c0,0.3,0.1,0.6,0.3,0.8l5.5,5.3c0.2,0.2,0.5,0.3,0.7,0.3h0c0.3,0,0.6-0.2,0.7-0.4   L36.7,26c0.2-0.2,0.3-0.5,0.3-0.8C37,24.9,36.9,24.6,36.6,24.4z"/>
	<path class="st0" d="M8.9,26.2c-0.6,0-1.1,0.5-1.1,1.1s0.5,1.1,1.1,1.1h4.2c0.6,0,1.1-0.5,1.1-1.1s-0.5-1.1-1.1-1.1H8.9z"/>
	<path class="st0" d="M23.1,9.2H8.9c-0.6,0-1.1,0.5-1.1,1.1s0.5,1.1,1.1,1.1h14.2c0.6,0,1.1-0.5,1.1-1.1S23.7,9.2,23.1,9.2z"/>
</g>
</svg>